<?xml version="1.0" standalone="no"?>
<!DOCTYPE svg PUBLIC "-//W3C//DTD SVG 20010904//EN"
 "http://www.w3.org/TR/2001/REC-SVG-20010904/DTD/svg10.dtd">
<svg version="1.0" xmlns="http://www.w3.org/2000/svg"
 width="302.000000pt" height="354.000000pt" viewBox="0 0 302.000000 354.000000"
 preserveAspectRatio="xMidYMid meet">

<g transform="translate(0.000000,354.000000) scale(0.100000,-0.100000)"
fill="#000000" stroke="none">
<path d="M2079 3497 c-19 -12 -44 -39 -57 -58 l-23 -35 -48 23 c-98 49 -215
21 -275 -65 -40 -57 -48 -152 -18 -210 l20 -38 -344 -537 c-373 -582 -370
-576 -319 -631 14 -15 25 -29 25 -32 0 -3 -23 -41 -51 -84 -78 -122 -78 -122
111 -247 85 -57 164 -103 176 -103 33 0 65 31 113 108 l44 70 56 -5 c69 -6 65
-11 196 194 105 165 91 154 171 138 41 -9 145 15 205 46 l55 30 47 -20 c157
-67 287 -208 353 -381 26 -70 28 -85 28 -215 0 -128 -3 -146 -28 -213 -55
-146 -136 -256 -251 -338 l-63 -44 -398 2 -399 3 130 74 c72 40 133 79 137 85
14 20 8 63 -10 79 -17 16 -85 17 -779 17 -734 0 -760 -1 -777 -19 -12 -13 -16
-32 -14 -58 3 -38 4 -38 137 -112 123 -68 133 -75 110 -84 -133 -53 -204 -112
-250 -211 -118 -252 19 -538 281 -586 37 -7 488 -9 1308 -8 l1252 3 27 28 28
27 0 349 0 349 -24 26 c-15 15 -41 29 -62 32 l-38 6 30 60 c17 33 45 105 64
161 84 254 87 490 8 730 -52 156 -117 261 -238 382 -135 135 -257 206 -435
251 -67 18 -73 22 -92 59 -11 22 -27 48 -36 57 -14 16 -10 25 41 105 l55 87
56 11 c126 25 200 137 173 263 -8 37 -21 58 -68 104 -50 49 -56 58 -43 69 26
21 44 66 44 107 0 49 -30 95 -94 143 -108 82 -184 99 -247 56z m179 -149 c26
-18 42 -37 42 -50 0 -11 -21 -54 -46 -95 -26 -40 -45 -75 -43 -77 2 -1 37 -24
77 -49 78 -51 86 -62 86 -121 1 -67 -74 -108 -137 -75 -54 29 -435 275 -457
296 -38 36 -35 96 8 134 46 41 75 37 166 -21 l79 -49 48 76 c27 42 54 80 61
84 13 8 52 -9 116 -53z m-307 -449 c120 -77 186 -125 182 -133 -61 -101 -75
-118 -96 -111 -12 4 -51 13 -85 21 -112 25 -224 -7 -310 -90 -138 -132 -143
-355 -10 -493 22 -22 39 -45 37 -50 -2 -5 -42 -69 -88 -141 -81 -126 -86 -131
-105 -118 -12 8 -97 63 -189 122 -124 80 -166 111 -162 123 7 19 629 991 634
991 2 0 88 -54 192 -121z m29 -350 c60 -27 88 -54 116 -114 41 -86 24 -195
-39 -264 -35 -38 -115 -71 -172 -71 -57 0 -137 33 -172 71 -61 67 -79 177 -42
259 27 60 54 88 114 116 63 30 134 31 195 3z m390 -250 c220 -84 410 -285 491
-522 37 -108 49 -187 49 -325 0 -186 -43 -356 -137 -534 l-35 -68 -176 0 -175
0 50 53 c93 98 158 213 195 344 17 61 22 104 22 198 0 145 -16 213 -81 345
-39 80 -60 109 -137 185 -69 69 -110 101 -169 130 -55 28 -76 44 -73 55 3 8
12 35 20 60 8 25 17 62 21 83 7 44 10 43 135 -4z m-1115 -513 c57 -38 84 -60
79 -69 -26 -44 -66 -97 -74 -97 -7 0 -170 100 -188 115 -2 2 13 28 33 60 22
34 42 55 50 51 7 -2 52 -30 100 -60z m134 -800 c-2 -2 -56 -33 -120 -70 l-116
-66 -273 0 -273 0 -81 44 c-45 24 -101 56 -126 70 l-45 26 519 0 c286 0 517
-2 515 -4z m1481 -546 l0 -290 -1247 0 -1248 0 -50 24 c-58 27 -104 73 -137
136 -19 37 -23 60 -23 130 0 95 19 146 78 208 49 51 84 66 172 73 44 3 614 6
1268 7 l1187 2 0 -290z"/>
</g>
</svg>
